<svg width="40" height="38" viewBox="0 0 40 38" fill="none" xmlns="http://www.w3.org/2000/svg">
<g clip-path="url(#clip0_12_43)">
<path d="M20 30.0833C20.442 30.0833 20.8659 30.2501 21.1785 30.5471C21.4911 30.844 21.6667 31.2467 21.6667 31.6667V33.25C21.6667 33.6699 21.4911 34.0726 21.1785 34.3696C20.8659 34.6665 20.442 34.8333 20 34.8333C19.558 34.8333 19.134 34.6665 18.8215 34.3696C18.5089 34.0726 18.3333 33.6699 18.3333 33.25V31.6667C18.3333 31.2467 18.5089 30.844 18.8215 30.5471C19.134 30.2501 19.558 30.0833 20 30.0833ZM30.6067 26.8375L31.785 27.9569C32.0886 28.2555 32.2566 28.6555 32.2528 29.0706C32.249 29.4858 32.0737 29.8829 31.7647 30.1765C31.4557 30.47 31.0377 30.6365 30.6007 30.6401C30.1637 30.6437 29.7427 30.4842 29.4283 30.1957L28.25 29.0763C27.9464 28.7777 27.7784 28.3777 27.7822 27.9626C27.786 27.5475 27.9613 27.1503 28.2703 26.8568C28.5793 26.5632 28.9973 26.3967 29.4343 26.3931C29.8713 26.3895 30.2923 26.5491 30.6067 26.8375ZM9.39333 26.8375C9.69326 26.5535 10.0957 26.3887 10.519 26.3764C10.9422 26.3641 11.3545 26.5053 11.6721 26.7714C11.9897 27.0374 12.1888 27.4084 12.229 27.8088C12.2691 28.2093 12.1473 28.6093 11.8883 28.9275L11.75 29.0763L10.5717 30.1957C10.2717 30.4797 9.86927 30.6446 9.44602 30.6569C9.02277 30.6691 8.61047 30.5279 8.29286 30.2618C7.97525 29.9958 7.77615 29.6249 7.736 29.2244C7.69584 28.8239 7.81764 28.424 8.07666 28.1057L8.21499 27.9569L9.39333 26.8375ZM20 9.49999C22.6522 9.49999 25.1957 10.5009 27.0711 12.2825C28.9464 14.0641 30 16.4804 30 19C30 21.5195 28.9464 23.9359 27.0711 25.7175C25.1957 27.4991 22.6522 28.5 20 28.5C17.3478 28.5 14.8043 27.4991 12.9289 25.7175C11.0536 23.9359 9.99999 21.5195 9.99999 19C9.99999 16.4804 11.0536 14.0641 12.9289 12.2825C14.8043 10.5009 17.3478 9.49999 20 9.49999ZM20 12.6667C18.2319 12.6667 16.5362 13.3339 15.2859 14.5216C14.0357 15.7094 13.3333 17.3203 13.3333 19C13.3333 20.6797 14.0357 22.2906 15.2859 23.4783C16.5362 24.6661 18.2319 25.3333 20 25.3333C21.7681 25.3333 23.4638 24.6661 24.714 23.4783C25.9643 22.2906 26.6667 20.6797 26.6667 19C26.6667 17.3203 25.9643 15.7094 24.714 14.5216C23.4638 13.3339 21.7681 12.6667 20 12.6667ZM6.66666 17.4167C7.09146 17.4171 7.50005 17.5716 7.80894 17.8487C8.11784 18.1257 8.30372 18.5043 8.32861 18.9072C8.35351 19.3101 8.21554 19.7068 7.94289 20.0162C7.67024 20.3257 7.28349 20.5246 6.86166 20.5722L6.66666 20.5833H4.99999C4.5752 20.5829 4.16661 20.4283 3.85771 20.1513C3.54882 19.8743 3.36294 19.4956 3.33804 19.0928C3.31315 18.6899 3.45112 18.2932 3.72377 17.9838C3.99642 17.6743 4.38317 17.4754 4.80499 17.4277L4.99999 17.4167H6.66666ZM35 17.4167C35.442 17.4167 35.8659 17.5835 36.1785 17.8804C36.4911 18.1773 36.6667 18.5801 36.6667 19C36.6667 19.4199 36.4911 19.8226 36.1785 20.1196C35.8659 20.4165 35.442 20.5833 35 20.5833H33.3333C32.8913 20.5833 32.4674 20.4165 32.1548 20.1196C31.8423 19.8226 31.6667 19.4199 31.6667 19C31.6667 18.5801 31.8423 18.1773 32.1548 17.8804C32.4674 17.5835 32.8913 17.4167 33.3333 17.4167H35ZM8.21499 7.80424C8.50198 7.53163 8.88382 7.36786 9.28886 7.34367C9.6939 7.31947 10.0943 7.43651 10.415 7.67282L10.5717 7.80424L11.75 8.92366C12.0489 9.20859 12.2225 9.59093 12.2354 9.99301C12.2483 10.3951 12.0996 10.7868 11.8196 11.0885C11.5395 11.3902 11.1491 11.5794 10.7275 11.6175C10.306 11.6557 9.88498 11.54 9.54999 11.2939L9.39333 11.1625L8.21499 10.0431C7.90254 9.74615 7.72702 9.3435 7.72702 8.92366C7.72702 8.50381 7.90254 8.10116 8.21499 7.80424ZM31.785 7.80424C32.0974 8.10116 32.273 8.50381 32.273 8.92366C32.273 9.3435 32.0974 9.74615 31.785 10.0431L30.6067 11.1625C30.4529 11.3137 30.269 11.4343 30.0657 11.5173C29.8623 11.6003 29.6436 11.644 29.4223 11.6458C29.201 11.6476 28.9816 11.6076 28.7767 11.528C28.5719 11.4483 28.3858 11.3308 28.2293 11.1821C28.0728 11.0335 27.9491 10.8567 27.8653 10.6621C27.7815 10.4675 27.7393 10.259 27.7412 10.0488C27.7432 9.83854 27.7891 9.63077 27.8765 9.4376C27.9638 9.24443 28.0908 9.06971 28.25 8.92366L29.4283 7.80424C29.7409 7.50741 30.1647 7.34066 30.6067 7.34066C31.0486 7.34066 31.4724 7.50741 31.785 7.80424ZM20 3.16666C20.442 3.16666 20.8659 3.33347 21.1785 3.6304C21.4911 3.92734 21.6667 4.33006 21.6667 4.74999V6.33332C21.6667 6.75325 21.4911 7.15598 21.1785 7.45291C20.8659 7.74984 20.442 7.91666 20 7.91666C19.558 7.91666 19.134 7.74984 18.8215 7.45291C18.5089 7.15598 18.3333 6.75325 18.3333 6.33332V4.74999C18.3333 4.33006 18.5089 3.92734 18.8215 3.6304C19.134 3.33347 19.558 3.16666 20 3.16666Z" fill="#800080"/>
</g>
<defs>
<clipPath id="clip0_12_43">
<rect width="40" height="38" fill="white"/>
</clipPath>
</defs>
</svg>
