<svg width="56" height="72" viewBox="0 0 56 72" fill="none" xmlns="http://www.w3.org/2000/svg">
<path d="M39.6666 8.66669H47.9999C49.768 8.66669 51.4637 9.4393 52.714 10.8146C53.9642 12.1898 54.6666 14.0551 54.6666 16V63.6667C54.6666 65.6116 53.9642 67.4769 52.714 68.8521C51.4637 70.2274 49.768 71 47.9999 71H7.99992C6.23181 71 4.53612 70.2274 3.28587 68.8521C2.03563 67.4769 1.33325 65.6116 1.33325 63.6667V16C1.33325 14.0551 2.03563 12.1898 3.28587 10.8146C4.53612 9.4393 6.23181 8.66669 7.99992 8.66669H16.3333" stroke="#FFC0CB" stroke-width="2" stroke-linecap="round" stroke-linejoin="round"/>
<path d="M16.7365 6.88834C17.097 5.30186 17.9292 3.89343 19.1009 2.88693C20.2726 1.88042 21.7165 1.33359 23.2032 1.33334H32.7932C34.2798 1.33359 35.7237 1.88042 36.8954 2.88693C38.0671 3.89343 38.8993 5.30186 39.2598 6.88834L41.3332 16H14.6665L16.7365 6.88834Z" stroke="#FFC0CB" stroke-width="2" stroke-linecap="round" stroke-linejoin="round"/>
<path d="M18 38H38M18 52.6667H38" stroke="#FFC0CB" stroke-width="2" stroke-linecap="round"/>
</svg>
