<svg width="39" height="34" viewBox="0 0 39 34" fill="none" xmlns="http://www.w3.org/2000/svg">
<path opacity="0.2" fill-rule="evenodd" clip-rule="evenodd" d="M3 6.10002C3 5.38394 3.31607 4.69718 3.87868 4.19084C4.44129 3.68449 5.20435 3.40002 6 3.40002H36C36.7956 3.40002 37.5587 3.68449 38.1213 4.19084C38.6839 4.69718 39 5.38394 39 6.10002V24.1C39 24.8161 38.6839 25.5029 38.1213 26.0092C37.5587 26.5156 36.7956 26.8 36 26.8H26V31.3C26.0005 31.4518 25.9797 31.603 25.938 31.75H30C30.2652 31.75 30.5196 31.8448 30.7071 32.0136C30.8946 32.1824 31 32.4113 31 32.65C31 32.8887 30.8946 33.1176 30.7071 33.2864C30.5196 33.4552 30.2652 33.55 30 33.55H12C11.7348 33.55 11.4804 33.4552 11.2929 33.2864C11.1054 33.1176 11 32.8887 11 32.65C11 32.4113 11.1054 32.1824 11.2929 32.0136C11.4804 31.8448 11.7348 31.75 12 31.75H16.062C16.0203 31.603 15.9995 31.4518 16 31.3V26.8H6C5.20435 26.8 4.44129 26.5156 3.87868 26.0092C3.31607 25.5029 3 24.8161 3 24.1V6.10002Z" fill="#FFC0CB"/>
<path fill-rule="evenodd" clip-rule="evenodd" d="M34 0.700012H4C2.93913 0.700012 1.92172 1.0793 1.17157 1.75443C0.421427 2.42956 0 3.34523 0 4.30001V22.3C0 23.2548 0.421427 24.1705 1.17157 24.8456C1.92172 25.5207 2.93913 25.9 4 25.9H34C35.0609 25.9 36.0783 25.5207 36.8284 24.8456C37.5786 24.1705 38 23.2548 38 22.3V4.30001C38 3.34523 37.5786 2.42956 36.8284 1.75443C36.0783 1.0793 35.0609 0.700012 34 0.700012ZM2 4.30001C2 3.82262 2.21071 3.36479 2.58579 3.02722C2.96086 2.68965 3.46957 2.50001 4 2.50001H34C34.5304 2.50001 35.0391 2.68965 35.4142 3.02722C35.7893 3.36479 36 3.82262 36 4.30001V22.3C36 22.7774 35.7893 23.2352 35.4142 23.5728C35.0391 23.9104 34.5304 24.1 34 24.1H4C3.46957 24.1 2.96086 23.9104 2.58579 23.5728C2.21071 23.2352 2 22.7774 2 22.3V4.30001Z" fill="#FFC0CB"/>
<path d="M19 23.2C18.6022 23.2 18.2206 23.0578 17.9393 22.8046C17.658 22.5514 17.5 22.208 17.5 21.85C17.5 21.492 17.658 21.1486 17.9393 20.8954C18.2206 20.6422 18.6022 20.5 19 20.5C19.3978 20.5 19.7794 20.6422 20.0607 20.8954C20.342 21.1486 20.5 21.492 20.5 21.85C20.5 22.208 20.342 22.5514 20.0607 22.8046C19.7794 23.0578 19.3978 23.2 19 23.2Z" fill="#FFC0CB"/>
<path fill-rule="evenodd" clip-rule="evenodd" d="M22 24.1H16C15.4696 24.1 14.9609 24.2896 14.5858 24.6272C14.2107 24.9648 14 25.4226 14 25.9V30.4C14 30.8774 14.2107 31.3352 14.5858 31.6728C14.9609 32.0104 15.4696 32.2 16 32.2H22C22.5304 32.2 23.0391 32.0104 23.4142 31.6728C23.7893 31.3352 24 30.8774 24 30.4V25.9C24 25.4226 23.7893 24.9648 23.4142 24.6272C23.0391 24.2896 22.5304 24.1 22 24.1ZM16 30.4V25.9H22V30.4H16Z" fill="#FFC0CB"/>
<path d="M10 32.2C9.73478 32.2 9.48043 32.1052 9.29289 31.9364C9.10536 31.7676 9 31.5387 9 31.3C9 31.0613 9.10536 30.8324 9.29289 30.6636C9.48043 30.4948 9.73478 30.4 10 30.4H28C28.2652 30.4 28.5196 30.4948 28.7071 30.6636C28.8946 30.8324 29 31.0613 29 31.3C29 31.5387 28.8946 31.7676 28.7071 31.9364C28.5196 32.1052 28.2652 32.2 28 32.2H10Z" fill="#FFC0CB"/>
<path fill-rule="evenodd" clip-rule="evenodd" d="M37 19.6H1V17.8H37V19.6Z" fill="#FFC0CB"/>
</svg>
