<svg width="71" height="63" viewBox="0 0 71 63" fill="none" xmlns="http://www.w3.org/2000/svg">
<g filter="url(#filter0_d_47_22)">
<path d="M10.963 0H60.037C64.6667 0 67 2.70417 67 8.20417V46.7958C67 52.25 64.6667 55 60.037 55H10.963C6.33333 55 4 52.25 4 46.7958V8.20417C4 2.70417 6.33333 0 10.963 0ZM35.4815 39.4167L60.4444 14.0708C61.3333 13.1542 62.037 11.0458 60.9259 9.16667C59.8519 7.2875 57.8889 7.24167 56.5926 8.3875L35.4815 26.0792L14.4074 8.3875C13.1111 7.24167 11.1481 7.2875 10.0741 9.16667C8.96296 11.0458 9.66667 13.1542 10.5556 14.0708L35.4815 39.4167Z" fill="#DB2777"/>
</g>
<defs>
<filter id="filter0_d_47_22" x="0" y="0" width="71" height="63" filterUnits="userSpaceOnUse" color-interpolation-filters="sRGB">
<feFlood flood-opacity="0" result="BackgroundImageFix"/>
<feColorMatrix in="SourceAlpha" type="matrix" values="0 0 0 0 0 0 0 0 0 0 0 0 0 0 0 0 0 0 127 0" result="hardAlpha"/>
<feOffset dy="4"/>
<feGaussianBlur stdDeviation="2"/>
<feComposite in2="hardAlpha" operator="out"/>
<feColorMatrix type="matrix" values="0 0 0 0 0 0 0 0 0 0 0 0 0 0 0 0 0 0 0.25 0"/>
<feBlend mode="normal" in2="BackgroundImageFix" result="effect1_dropShadow_47_22"/>
<feBlend mode="normal" in="SourceGraphic" in2="effect1_dropShadow_47_22" result="shape"/>
</filter>
</defs>
</svg>
