<svg width="192" height="278" viewBox="0 0 192 278" fill="none" xmlns="http://www.w3.org/2000/svg">
<g clip-path="url(#clip0_17_60)">
<path d="M48 278C74.496 278 96 257.243 96 231.667V185.333H48C21.504 185.333 0 206.091 0 231.667C0 257.243 21.504 278 48 278Z" fill="#0ACF83"/>
<path d="M0 139C0 113.424 21.504 92.6667 48 92.6667H96V185.333H48C21.504 185.333 0 164.576 0 139Z" fill="#A259FF"/>
<path d="M0 46.3333C0 20.7573 21.504 0 48 0H96V92.6667H48C21.504 92.6667 0 71.9093 0 46.3333Z" fill="#F24E1E"/>
<path d="M96 0H144C170.496 0 192 20.7573 192 46.3333C192 71.9093 170.496 92.6667 144 92.6667H96V0Z" fill="#FF7262"/>
<path d="M192 139C192 164.576 170.496 185.333 144 185.333C117.504 185.333 96 164.576 96 139C96 113.424 117.504 92.6667 144 92.6667C170.496 92.6667 192 113.424 192 139Z" fill="#1ABCFE"/>
</g>
<defs>
<clipPath id="clip0_17_60">
<rect width="192" height="278" fill="white"/>
</clipPath>
</defs>
</svg>
