<svg width="39" height="32" viewBox="0 0 39 32" fill="none" xmlns="http://www.w3.org/2000/svg">
<g clip-path="url(#clip0_74_6)">
<path d="M1.5 25H19V26.5C19 26.6326 19.0527 26.7598 19.1464 26.8536C19.2402 26.9473 19.3674 27 19.5 27C19.6326 27 19.7598 26.9473 19.8536 26.8536C19.9473 26.7598 20 26.6326 20 26.5V25H37.5C38.327 25 39 24.327 39 23.5V1.5C39 0.673 38.327 0 37.5 0H1.5C0.673 0 0 0.673 0 1.5V23.5C0 24.327 0.673 25 1.5 25ZM1 1.5C1 1.36739 1.05268 1.24021 1.14645 1.14645C1.24021 1.05268 1.36739 1 1.5 1H37.5C37.6326 1 37.7598 1.05268 37.8536 1.14645C37.9473 1.24021 38 1.36739 38 1.5V23.5C38 23.6326 37.9473 23.7598 37.8536 23.8536C37.7598 23.9473 37.6326 24 37.5 24H1.5C1.36739 24 1.24021 23.9473 1.14645 23.8536C1.05268 23.7598 1 23.6326 1 23.5V1.5Z" fill="#F9A8D4"/>
<path d="M3.5 22H35.5C35.6326 22 35.7598 21.9473 35.8536 21.8536C35.9473 21.7598 36 21.6326 36 21.5V3.5C36 3.36739 35.9473 3.24021 35.8536 3.14645C35.7598 3.05268 35.6326 3 35.5 3H3.5C3.36739 3 3.24021 3.05268 3.14645 3.14645C3.05268 3.24021 3 3.36739 3 3.5V21.5C3 21.6326 3.05268 21.7598 3.14645 21.8536C3.24021 21.9473 3.36739 22 3.5 22ZM4 4H35V21H4V4ZM14 28C12.86 28 12 28.86 12 30V31.5C12 31.6326 12.0527 31.7598 12.1464 31.8536C12.2402 31.9473 12.3674 32 12.5 32H26.5C26.6326 32 26.7598 31.9473 26.8536 31.8536C26.9473 31.7598 27 31.6326 27 31.5V30.075C27 28.912 26.122 28 25 28H14ZM26 30.075V31H13V30C13 29.411 13.411 29 14 29H25C25.57 29 26 29.462 26 30.075Z" fill="#F9A8D4"/>
</g>
<defs>
<clipPath id="clip0_74_6">
<rect width="39" height="32" fill="white"/>
</clipPath>
</defs>
</svg>
