<svg width="59" height="55" viewBox="0 0 59 55" fill="none" xmlns="http://www.w3.org/2000/svg">
<path d="M29.0304 5.19396e-06H29.2498C34.541 5.19396e-06 39.4922 1.4048 43.7332 3.85001L43.6034 3.77896C47.9431 6.22311 51.5596 9.71362 54.103 13.9127L54.1762 14.0456C56.7458 18.3358 58.0931 23.213 58.0796 28.176C58.0796 40.5648 49.8597 51.0927 38.4279 54.8923L38.2226 54.9519C37.9668 55.0275 37.6964 55.0434 37.4331 54.9984C37.1698 54.9534 36.9212 54.8488 36.7074 54.6929L36.7122 54.6952C36.557 54.5612 36.433 54.3967 36.3483 54.2126C36.2637 54.0284 36.2204 53.8289 36.2213 53.6273V53.5952V53.5975L36.2402 50.7879C36.2527 48.9882 36.259 47.3428 36.259 45.8517C36.3472 44.896 36.2167 43.9333 35.8768 43.0324C35.537 42.1315 34.9962 41.3146 34.2932 40.6404C35.6616 40.5121 37.0173 40.2783 38.3476 39.9415L38.1683 39.9804C39.4374 39.6431 40.6565 39.1486 41.7956 38.5092L41.7224 38.5481C42.8857 37.9317 43.9199 37.1094 44.7716 36.1235L44.7857 36.1075C45.6866 34.9843 46.3594 33.705 46.7681 32.3377L46.7894 32.2575C47.3099 30.5613 47.5715 28.8001 47.5658 27.0302L47.5634 26.7185V26.7346L47.5658 26.5696C47.5694 23.8229 46.499 21.1773 44.571 19.1675L44.578 19.1744C44.9745 18.166 45.2034 17.0019 45.2034 15.785C45.2053 14.348 44.8797 12.9283 44.25 11.6279L44.276 11.6875C43.2263 11.4989 42.142 11.6443 41.1844 12.1023L41.2127 12.0908C39.9703 12.5312 38.7751 13.0884 37.6444 13.7546L37.734 13.7042L36.2968 14.5842C34.1209 13.9792 31.6216 13.6308 29.0398 13.6308C26.458 13.6308 23.9587 13.9792 21.5893 14.63L21.7804 14.5842C21.3777 14.3153 20.8419 13.9845 20.1733 13.5919C19.2107 13.0621 18.207 12.6062 17.1714 12.2283L17.0156 12.1779C16.0201 11.674 14.8816 11.5017 13.7753 11.6875L13.806 11.6829C13.1903 12.9659 12.8736 14.365 12.8785 15.7804C12.8785 16.9973 13.1074 18.1638 13.5275 19.2385L13.5039 19.1721C11.5361 21.2241 10.4657 23.938 10.5185 26.7415V26.7323L10.5162 27.0302C10.5162 28.8842 10.7994 30.6763 11.328 32.3629L11.2926 32.2323C11.7386 33.7058 12.416 34.9869 13.2986 36.1121L13.2774 36.0823C14.1068 37.0697 15.1214 37.8955 16.2675 38.516L16.3194 38.5413C17.3389 39.1188 18.5213 39.6069 19.765 39.9483L19.8736 39.9736C20.9733 40.26 22.2902 40.4938 23.6378 40.6244L23.7463 40.6336C22.7292 41.6144 22.0518 42.9252 21.8961 44.3873L21.8937 44.4148C21.3689 44.6603 20.8148 44.8419 20.2441 44.9556L20.1945 44.9648C19.5904 45.0817 18.8989 45.1481 18.1885 45.1481H18.0328H18.0398C17.1466 45.1291 16.2796 44.8514 15.55 44.3506L15.5642 44.3598C14.6977 43.7759 13.9854 43.0018 13.485 42.1002L13.4685 42.0658C13.0146 41.3129 12.3958 40.6659 11.656 40.1706L11.6348 40.1569C11.0865 39.7569 10.4651 39.4614 9.80344 39.286L9.76568 39.2769L9.01048 39.1669C8.63147 39.1399 8.25115 39.1979 7.89892 39.3365L7.91544 39.3296C7.71405 39.4396 7.65112 39.5801 7.72664 39.7513C7.81789 39.9468 7.93196 40.1187 8.06884 40.2669L8.06648 40.2646C8.21123 40.4296 8.37249 40.5747 8.55028 40.7L8.55736 40.7046L8.82168 40.8879C9.48956 41.2271 10.0394 41.6992 10.4572 42.2698L10.4666 42.2835C10.9174 42.8267 11.3138 43.4408 11.6324 44.0985L11.656 44.1535L12.0336 44.9969C12.3522 45.9181 12.9304 46.6881 13.6856 47.245L13.6974 47.2542C14.4054 47.7904 15.2598 48.1754 16.192 48.3496L16.2297 48.3542C17.0085 48.5008 17.9148 48.5925 18.8399 48.6108H18.8564C18.965 48.6139 19.083 48.6154 19.2104 48.6154C19.8271 48.6154 20.4305 48.5681 21.0205 48.4733L20.9568 48.4825L21.8253 48.3358C21.8253 49.2663 21.8316 50.3495 21.8442 51.5854C21.8567 52.8214 21.863 53.4883 21.863 53.586V53.6181C21.863 54.0421 21.6742 54.4225 21.3722 54.6861C21.1572 54.8422 20.9048 54.9467 20.6402 54.9909C20.3756 55.0351 20.104 55.0178 19.8476 54.9404L19.8594 54.9427C8.22696 51.0721 0.0141602 40.5442 0.0141602 28.1531C0.0141602 22.9556 1.45848 18.0858 3.98132 13.9013L3.9058 14.0342C6.42283 9.82012 10.0174 6.3083 14.3417 3.83855L14.4786 3.76751C18.8212 1.28505 23.7717 -0.0170653 28.8109 -0.00228647H29.0422H29.0304V5.19396e-06ZM11 40.4846C11.0755 40.3135 10.9874 40.1668 10.7356 40.0446C10.4839 39.9713 10.3203 39.9957 10.2448 40.1179C10.1692 40.289 10.2573 40.4357 10.5091 40.5579C10.7356 40.7046 10.8993 40.6801 11 40.4846ZM12.1729 41.7336C12.3491 41.6113 12.3239 41.4158 12.0974 41.1469C11.8456 40.9269 11.6442 40.8902 11.4932 41.0369C11.317 41.1591 11.3422 41.3547 11.5687 41.6235C11.8189 41.8634 12.0203 41.8993 12.1729 41.7313V41.7336ZM13.3057 43.3835C13.5322 43.2124 13.5322 42.9802 13.3057 42.6869C13.1043 42.3691 12.8903 42.2958 12.6638 42.4669C12.4372 42.5891 12.4372 42.8091 12.6638 43.1269C12.8903 43.4447 13.1043 43.5302 13.3057 43.3835ZM14.8916 44.9258C15.093 44.7303 15.0426 44.4981 14.7406 44.2292C14.4385 43.9358 14.1867 43.8992 13.9854 44.1192C13.7588 44.3147 13.8091 44.547 14.1364 44.8158C14.4385 45.1092 14.6902 45.1428 14.8916 44.9167V44.9258ZM17.0463 45.8425C17.1218 45.5736 16.9582 45.3781 16.5554 45.2558C16.1778 45.1581 15.9387 45.2436 15.838 45.5125C15.7373 45.7814 15.9009 45.9647 16.3288 46.0625C16.7064 46.2107 16.9456 46.1374 17.0463 45.8425ZM19.4275 46.0258C19.4275 45.7081 19.2135 45.5736 18.7856 45.6225C18.3828 45.6225 18.1814 45.757 18.1814 46.0258C18.1814 46.3436 18.3954 46.4781 18.8234 46.4292C19.2261 46.4307 19.4275 46.2947 19.4275 46.0258ZM21.62 45.6592C21.5696 45.3903 21.3431 45.2803 20.9403 45.3292C20.5375 45.4025 20.3613 45.5858 20.4116 45.8792C20.462 46.1725 20.6885 46.2703 21.0913 46.1725C21.4941 46.0747 21.6687 45.9036 21.62 45.6592Z" fill="black"/>
</svg>
