<svg width="93" height="77" viewBox="0 0 93 77" fill="none" xmlns="http://www.w3.org/2000/svg">
<path d="M15.5 8.5V51H34.875V34C34.875 31.7457 35.6915 29.5837 37.1449 27.9896C38.5983 26.3955 40.5696 25.5 42.625 25.5H62C64.0554 25.5 66.0267 26.3955 67.4801 27.9896C68.9335 29.5837 69.75 31.7457 69.75 34V51H77.5V8.5H15.5ZM0 68V59.5H15.5C13.4446 59.5 11.4733 58.6045 10.0199 57.0104C8.56652 55.4163 7.75 53.2543 7.75 51V8.5C7.75 6.24566 8.56652 4.08365 10.0199 2.48959C11.4733 0.895533 13.4446 0 15.5 0H77.5C79.5554 0 81.5267 0.895533 82.9801 2.48959C84.4335 4.08365 85.25 6.24566 85.25 8.5V51C85.25 53.2543 84.4335 55.4163 82.9801 57.0104C81.5267 58.6045 79.5554 59.5 77.5 59.5H93V68H69.75C69.75 70.2543 68.9335 72.4163 67.4801 74.0104C66.0267 75.6045 64.0554 76.5 62 76.5H42.625C40.5696 76.5 38.5983 75.6045 37.1449 74.0104C35.6915 72.4163 34.875 70.2543 34.875 68H0ZM44.5625 68C44.0486 68 43.5558 68.2239 43.1925 68.6224C42.8291 69.0209 42.625 69.5614 42.625 70.125C42.625 70.6886 42.8291 71.2291 43.1925 71.6276C43.5558 72.0261 44.0486 72.25 44.5625 72.25C45.0764 72.25 45.5692 72.0261 45.9325 71.6276C46.2959 71.2291 46.5 70.6886 46.5 70.125C46.5 69.5614 46.2959 69.0209 45.9325 68.6224C45.5692 68.2239 45.0764 68 44.5625 68ZM60.0625 68C59.5486 68 59.0558 68.2239 58.6925 68.6224C58.3291 69.0209 58.125 69.5614 58.125 70.125C58.125 70.6886 58.3291 71.2291 58.6925 71.6276C59.0558 72.0261 59.5486 72.25 60.0625 72.25C60.5764 72.25 61.0692 72.0261 61.4325 71.6276C61.7959 71.2291 62 70.6886 62 70.125C62 69.5614 61.7959 69.0209 61.4325 68.6224C61.0692 68.2239 60.5764 68 60.0625 68ZM50.375 68V72.25H54.25V68H50.375ZM42.625 34V63.75H62V34H42.625Z" fill="#FFC0CB"/>
</svg>
